<svg xmlns="http://www.w3.org/2000/svg" width="687" height="354" fill="none"><path fill="url(#a)" fill-opacity=".8" d="M33.696 29.926h27.475V0h.6v29.926h27.658V0h.6v29.926h27.659V0h.599v29.926h27.658V0h.6v29.926h27.658V0h.6v29.926h27.659V0h.6v29.926h27.658V0h.599v29.926h27.659V0h.599v29.926h27.659V0h.6v29.926h27.658V0h.6v29.926h27.657V0h.6v29.926h27.658V0h.599v29.926h27.66V0h.599v29.926h27.658V0h.6v29.926h27.658V0h.6v29.926h27.659V0h.6v29.926h27.657V0h.599v29.926h27.66V0h.599v29.926h27.658V0h.6v29.926h27.658V0h.6v29.926h27.659V0h.6v29.926h27.657V0h.599v29.926H687v.5h-31.812v27.652H687v.5h-31.812v27.836H687v.5h-31.812v27.837H687v.5h-31.812v27.835H687v.5h-31.812v27.836H687v.5h-31.812v27.838H687v.5h-31.812v27.834H687v.5h-31.812v27.837H687v.5h-31.812v27.836H687v.5h-31.812v27.836H687v.5h-31.812v39.678h-.599v-39.678h-27.657v39.678h-.6v-39.678h-27.659v39.678h-.6v-39.678h-27.658v39.678h-.6v-39.678h-27.658v39.678h-.599v-39.678h-27.66v39.678h-.599v-39.678h-27.657v39.678h-.6v-39.678h-27.659v39.678h-.6v-39.678h-27.658v39.678h-.6v-39.678h-27.658v39.678h-.599v-39.678h-27.66v39.678h-.599v-39.678h-27.658v39.678h-.6v-39.678h-27.657v39.678h-.6v-39.678h-27.658v39.678h-.6v-39.678h-27.659v39.678h-.599v-39.678h-27.659v39.678h-.599v-39.678h-27.658v39.678h-.6v-39.678h-27.659v39.678h-.6v-39.678h-27.658v39.678h-.6v-39.678h-27.658v39.678h-.599v-39.678h-27.66v39.678h-.6v-39.678H61.772v39.678h-.6v-39.678H33.696v39.678h-.6v-39.678H0v-.5h33.097v-27.836H0v-.5h33.097v-27.836H0v-.5h33.097v-27.837H0v-.5h33.097V200.26H0v-.5h33.097v-27.838H0v-.5h33.097v-27.836H0v-.5h33.097v-27.835H0v-.5h33.097V86.914H0v-.5h33.097V58.578H0v-.5h33.097V30.426H0v-.5h33.097V0h.6zm0 283.177h27.475v-27.836H33.696zm28.075 0h27.658v-27.836H61.77zm28.257 0h27.66v-27.836h-27.66zm28.259 0h27.658v-27.836h-27.658zm28.258 0h27.658v-27.836h-27.658zm28.258 0h27.659v-27.836h-27.659zm28.259 0h27.658v-27.836h-27.658zm28.257 0h27.659v-27.836h-27.659zm28.258 0h27.659v-27.836h-27.659zm28.259 0h27.658v-27.836h-27.658zm28.258 0h27.657v-27.836h-27.657zm28.257 0h27.658v-27.836h-27.658zm28.257 0h27.66v-27.836h-27.66zm28.259 0h27.658v-27.836h-27.658zm28.258 0h27.658v-27.836h-27.658zm28.258 0h27.659v-27.836h-27.659zm28.259 0h27.657v-27.836h-27.657zm28.256 0h27.66v-27.836h-27.66zm28.259 0h27.658v-27.836h-27.658zm28.258 0h27.658v-27.836h-27.658zm28.258 0h27.659v-27.836h-27.659zm28.259 0h27.657v-27.836h-27.657zM33.696 284.767h27.475v-27.836H33.696zm28.075 0h27.658v-27.836H61.77zm28.257 0h27.66v-27.836h-27.66zm28.259 0h27.658v-27.836h-27.658zm28.258 0h27.658v-27.836h-27.658zm28.258 0h27.659v-27.836h-27.659zm28.259 0h27.658v-27.836h-27.658zm28.257 0h27.659v-27.836h-27.659zm28.258 0h27.659v-27.836h-27.659zm28.259 0h27.658v-27.836h-27.658zm28.258 0h27.657v-27.836h-27.657zm28.257 0h27.658v-27.836h-27.658zm28.257 0h27.66v-27.836h-27.66zm28.259 0h27.658v-27.836h-27.658zm28.258 0h27.658v-27.836h-27.658zm28.258 0h27.659v-27.836h-27.659zm28.259 0h27.657v-27.836h-27.657zm28.256 0h27.66v-27.836h-27.66zm28.259 0h27.658v-27.836h-27.658zm28.258 0h27.658v-27.836h-27.658zm28.258 0h27.659v-27.836h-27.659zm28.259 0h27.657v-27.836h-27.657zM33.696 256.431h27.475v-27.837H33.696zm28.075 0h27.658v-27.837H61.77zm28.257 0h27.66v-27.837h-27.66zm28.259 0h27.658v-27.837h-27.658zm28.258 0h27.658v-27.837h-27.658zm28.258 0h27.659v-27.837h-27.659zm28.259 0h27.658v-27.837h-27.658zm28.257 0h27.659v-27.837h-27.659zm28.258 0h27.659v-27.837h-27.659zm28.259 0h27.658v-27.837h-27.658zm28.258 0h27.657v-27.837h-27.657zm28.257 0h27.658v-27.837h-27.658zm28.257 0h27.66v-27.837h-27.66zm28.259 0h27.658v-27.837h-27.658zm28.258 0h27.658v-27.837h-27.658zm28.258 0h27.659v-27.837h-27.659zm28.259 0h27.657v-27.837h-27.657zm28.256 0h27.66v-27.837h-27.66zm28.259 0h27.658v-27.837h-27.658zm28.258 0h27.658v-27.837h-27.658zm28.258 0h27.659v-27.837h-27.659zm28.259 0h27.657v-27.837h-27.657zM33.696 228.094h27.475V200.26H33.696zm28.075 0h27.658V200.26H61.77zm28.257 0h27.66V200.26h-27.66zm28.259 0h27.658V200.26h-27.658zm28.258 0h27.658V200.26h-27.658zm28.258 0h27.659V200.26h-27.659zm28.259 0h27.658V200.26h-27.658zm28.257 0h27.659V200.26h-27.659zm28.258 0h27.659V200.26h-27.659zm28.259 0h27.658V200.26h-27.658zm28.258 0h27.657V200.26h-27.657zm28.257 0h27.658V200.26h-27.658zm28.257 0h27.66V200.26h-27.66zm28.259 0h27.658V200.26h-27.658zm28.258 0h27.658V200.26h-27.658zm28.258 0h27.659V200.26h-27.659zm28.259 0h27.657V200.26h-27.657zm28.256 0h27.66V200.26h-27.66zm28.259 0h27.658V200.26h-27.658zm28.258 0h27.658V200.26h-27.658zm28.258 0h27.659V200.26h-27.659zm28.259 0h27.657V200.26h-27.657zM33.696 199.76h27.475v-27.838H33.696zm28.075 0h27.658v-27.838H61.77zm28.257 0h27.66v-27.838h-27.66zm28.259 0h27.658v-27.838h-27.658zm28.258 0h27.658v-27.838h-27.658zm28.258 0h27.659v-27.838h-27.659zm28.259 0h27.658v-27.838h-27.658zm28.257 0h27.659v-27.838h-27.659zm28.258 0h27.659v-27.838h-27.659zm28.259 0h27.658v-27.838h-27.658zm28.258 0h27.657v-27.838h-27.657zm28.257 0h27.658v-27.838h-27.658zm28.257 0h27.66v-27.838h-27.66zm28.259 0h27.658v-27.838h-27.658zm28.258 0h27.658v-27.838h-27.658zm28.258 0h27.659v-27.838h-27.659zm28.259 0h27.657v-27.838h-27.657zm28.256 0h27.66v-27.838h-27.66zm28.259 0h27.658v-27.838h-27.658zm28.258 0h27.658v-27.838h-27.658zm28.258 0h27.659v-27.838h-27.659zm28.259 0h27.657v-27.838h-27.657zM33.696 171.422h27.475v-27.836H33.696zm28.075 0h27.658v-27.836H61.77zm28.257 0h27.66v-27.836h-27.66zm28.259 0h27.658v-27.836h-27.658zm28.258 0h27.658v-27.836h-27.658zm28.258 0h27.659v-27.836h-27.659zm28.259 0h27.658v-27.836h-27.658zm28.257 0h27.659v-27.836h-27.659zm28.258 0h27.659v-27.836h-27.659zm28.259 0h27.658v-27.836h-27.658zm28.258 0h27.657v-27.836h-27.657zm28.257 0h27.658v-27.836h-27.658zm28.257 0h27.66v-27.836h-27.66zm28.259 0h27.658v-27.836h-27.658zm28.258 0h27.658v-27.836h-27.658zm28.258 0h27.659v-27.836h-27.659zm28.259 0h27.657v-27.836h-27.657zm28.256 0h27.66v-27.836h-27.66zm28.259 0h27.658v-27.836h-27.658zm28.258 0h27.658v-27.836h-27.658zm28.258 0h27.659v-27.836h-27.659zm28.259 0h27.657v-27.836h-27.657zM33.696 143.086h27.475v-27.835H33.696zm28.075 0h27.658v-27.835H61.77zm28.257 0h27.66v-27.835h-27.66zm28.259 0h27.658v-27.835h-27.658zm28.258 0h27.658v-27.835h-27.658zm28.258 0h27.659v-27.835h-27.659zm28.259 0h27.658v-27.835h-27.658zm28.257 0h27.659v-27.835h-27.659zm28.258 0h27.659v-27.835h-27.659zm28.259 0h27.658v-27.835h-27.658zm28.258 0h27.657v-27.835h-27.657zm28.257 0h27.658v-27.835h-27.658zm28.257 0h27.66v-27.835h-27.66zm28.259 0h27.658v-27.835h-27.658zm28.258 0h27.658v-27.835h-27.658zm28.258 0h27.659v-27.835h-27.659zm28.259 0h27.657v-27.835h-27.657zm28.256 0h27.66v-27.835h-27.66zm28.259 0h27.658v-27.835h-27.658zm28.258 0h27.658v-27.835h-27.658zm28.258 0h27.659v-27.835h-27.659zm28.259 0h27.657v-27.835h-27.657zM33.696 114.751h27.475V86.914H33.696zm28.075 0h27.658V86.914H61.77zm28.257 0h27.66V86.914h-27.66zm28.259 0h27.658V86.914h-27.658zm28.258 0h27.658V86.914h-27.658zm28.258 0h27.659V86.914h-27.659zm28.259 0h27.658V86.914h-27.658zm28.257 0h27.659V86.914h-27.659zm28.258 0h27.659V86.914h-27.659zm28.259 0h27.658V86.914h-27.658zm28.258 0h27.657V86.914h-27.657zm28.257 0h27.658V86.914h-27.658zm28.257 0h27.66V86.914h-27.66zm28.259 0h27.658V86.914h-27.658zm28.258 0h27.658V86.914h-27.658zm28.258 0h27.659V86.914h-27.659zm28.259 0h27.657V86.914h-27.657zm28.256 0h27.66V86.914h-27.66zm28.259 0h27.658V86.914h-27.658zm28.258 0h27.658V86.914h-27.658zm28.258 0h27.659V86.914h-27.659zm28.259 0h27.657V86.914h-27.657zM33.696 86.414h27.475V58.578H33.696zm28.075 0h27.658V58.578H61.77zm28.257 0h27.66V58.578h-27.66zm28.259 0h27.658V58.578h-27.658zm28.258 0h27.658V58.578h-27.658zm28.258 0h27.659V58.578h-27.659zm28.259 0h27.658V58.578h-27.658zm28.257 0h27.659V58.578h-27.659zm28.258 0h27.659V58.578h-27.659zm28.259 0h27.658V58.578h-27.658zm28.258 0h27.657V58.578h-27.657zm28.257 0h27.658V58.578h-27.658zm28.257 0h27.66V58.578h-27.66zm28.259 0h27.658V58.578h-27.658zm28.258 0h27.658V58.578h-27.658zm28.258 0h27.659V58.578h-27.659zm28.259 0h27.657V58.578h-27.657zm28.256 0h27.66V58.578h-27.66zm28.259 0h27.658V58.578h-27.658zm28.258 0h27.658V58.578h-27.658zm28.258 0h27.659V58.578h-27.659zm28.259 0h27.657V58.578h-27.657zM33.696 58.078h27.475V30.426H33.696zm28.075 0h27.658V30.426H61.77zm28.257 0h27.66V30.426h-27.66zm28.259 0h27.658V30.426h-27.658zm28.258 0h27.658V30.426h-27.658zm28.258 0h27.659V30.426h-27.659zm28.259 0h27.658V30.426h-27.658zm28.257 0h27.659V30.426h-27.659zm28.258 0h27.659V30.426h-27.659zm28.259 0h27.658V30.426h-27.658zm28.258 0h27.657V30.426h-27.657zm28.257 0h27.658V30.426h-27.658zm28.257 0h27.66V30.426h-27.66zm28.259 0h27.658V30.426h-27.658zm28.258 0h27.658V30.426h-27.658zm28.258 0h27.659V30.426h-27.659zm28.259 0h27.657V30.426h-27.657zm28.256 0h27.66V30.426h-27.66zm28.259 0h27.658V30.426h-27.658zm28.258 0h27.658V30.426h-27.658zm28.258 0h27.659V30.426h-27.659zm28.259 0h27.657V30.426h-27.657z"/><defs><radialGradient id="a" cx="0" cy="0" r="1" gradientTransform="matrix(0 -179.658 349.368 0 343.5 164.57)" gradientUnits="userSpaceOnUse"><stop stop-color="#A37D2B"/><stop offset=".875" stop-color="#DCB45A" stop-opacity=".1"/></radialGradient></defs></svg>